<svg xmlns="http://www.w3.org/2000/svg" viewBox="0 0 100 100">
  <defs>
    <linearGradient id="grad" x1="0%" y1="0%" x2="100%" y2="100%">
      <stop offset="0%" style="stop-color:#64ffda;stop-opacity:1"/>
      <stop offset="100%" style="stop-color:#00A7B5;stop-opacity:1"/>
    </linearGradient>
  </defs>
  <path fill="url(#grad)" d="M50,5 C74.85,5 95,25.15 95,50 C95,74.85 74.85,95 50,95 C35,95 22.33,87.6 15,76 C25,85 40,85 50,80 C60,75 65,65 65,50 C65,35 55,25 40,25 C25,25 15,40 15,50 C15,55 16,60 18,64 C8.5,58 5,45 5,50 C5,25.15 25.15,5 50,5 Z"/>
</svg>
